<mxfile host="app.diagrams.net" agent="Mozilla/5.0 (X11; Linux x86_64) AppleWebKit/537.36 (KHTML, like Gecko) Chrome/129.0.0.0 Safari/537.36" version="24.7.17">
  <diagram id="C5RBs43oDa-KdzZeNtuy" name="Page-1">
    <mxGraphModel dx="993" dy="476" grid="1" gridSize="10" guides="1" tooltips="1" connect="1" arrows="1" fold="1" page="1" pageScale="1" pageWidth="827" pageHeight="1169" math="0" shadow="0">
      <root>
        <mxCell id="WIyWlLk6GJQsqaUBKTNV-0" />
        <mxCell id="WIyWlLk6GJQsqaUBKTNV-1" parent="WIyWlLk6GJQsqaUBKTNV-0" />
        <mxCell id="ItQXpiEd3vd_RmJCjo5c-0" value="&lt;font style=&quot;font-size: 17px;&quot;&gt;Usuário&lt;/font&gt;" style="rounded=0;whiteSpace=wrap;html=1;" vertex="1" parent="WIyWlLk6GJQsqaUBKTNV-1">
          <mxGeometry x="150" y="180" width="140" height="40" as="geometry" />
        </mxCell>
        <mxCell id="ItQXpiEd3vd_RmJCjo5c-1" value="Nome" style="ellipse;whiteSpace=wrap;html=1;" vertex="1" parent="WIyWlLk6GJQsqaUBKTNV-1">
          <mxGeometry x="90" y="120" width="86" height="30" as="geometry" />
        </mxCell>
        <mxCell id="ItQXpiEd3vd_RmJCjo5c-3" value="Sobrenome" style="ellipse;whiteSpace=wrap;html=1;" vertex="1" parent="WIyWlLk6GJQsqaUBKTNV-1">
          <mxGeometry x="140" y="60" width="86" height="30" as="geometry" />
        </mxCell>
        <mxCell id="ItQXpiEd3vd_RmJCjo5c-4" value="Primeiro" style="ellipse;whiteSpace=wrap;html=1;" vertex="1" parent="WIyWlLk6GJQsqaUBKTNV-1">
          <mxGeometry x="20" y="60" width="86" height="30" as="geometry" />
        </mxCell>
        <mxCell id="ItQXpiEd3vd_RmJCjo5c-7" value="" style="endArrow=none;html=1;rounded=0;exitX=0;exitY=0;exitDx=0;exitDy=0;entryX=0.605;entryY=0.967;entryDx=0;entryDy=0;entryPerimeter=0;" edge="1" parent="WIyWlLk6GJQsqaUBKTNV-1" source="ItQXpiEd3vd_RmJCjo5c-1" target="ItQXpiEd3vd_RmJCjo5c-4">
          <mxGeometry width="50" height="50" relative="1" as="geometry">
            <mxPoint x="72.59440840897844" y="167.19339828220183" as="sourcePoint" />
            <mxPoint x="40" y="102.80000000000001" as="targetPoint" />
          </mxGeometry>
        </mxCell>
        <mxCell id="ItQXpiEd3vd_RmJCjo5c-8" value="" style="endArrow=none;html=1;rounded=0;exitX=0.744;exitY=0.033;exitDx=0;exitDy=0;exitPerimeter=0;entryX=0.5;entryY=1;entryDx=0;entryDy=0;" edge="1" parent="WIyWlLk6GJQsqaUBKTNV-1" source="ItQXpiEd3vd_RmJCjo5c-1" target="ItQXpiEd3vd_RmJCjo5c-3">
          <mxGeometry width="50" height="50" relative="1" as="geometry">
            <mxPoint x="184.5" y="107" as="sourcePoint" />
            <mxPoint x="295.5" y="20" as="targetPoint" />
          </mxGeometry>
        </mxCell>
        <mxCell id="ItQXpiEd3vd_RmJCjo5c-9" value="" style="endArrow=none;html=1;rounded=0;exitX=0.5;exitY=1;exitDx=0;exitDy=0;entryX=0.107;entryY=0.025;entryDx=0;entryDy=0;entryPerimeter=0;" edge="1" parent="WIyWlLk6GJQsqaUBKTNV-1" source="ItQXpiEd3vd_RmJCjo5c-1" target="ItQXpiEd3vd_RmJCjo5c-0">
          <mxGeometry width="50" height="50" relative="1" as="geometry">
            <mxPoint x="190" y="210" as="sourcePoint" />
            <mxPoint x="240" y="160" as="targetPoint" />
          </mxGeometry>
        </mxCell>
        <mxCell id="ItQXpiEd3vd_RmJCjo5c-10" value="E-mail" style="ellipse;whiteSpace=wrap;html=1;" vertex="1" parent="WIyWlLk6GJQsqaUBKTNV-1">
          <mxGeometry x="20" y="200" width="84" height="40" as="geometry" />
        </mxCell>
        <mxCell id="ItQXpiEd3vd_RmJCjo5c-11" value="" style="endArrow=none;html=1;rounded=0;exitX=1;exitY=0.5;exitDx=0;exitDy=0;entryX=0;entryY=0.5;entryDx=0;entryDy=0;" edge="1" parent="WIyWlLk6GJQsqaUBKTNV-1" source="ItQXpiEd3vd_RmJCjo5c-10" target="ItQXpiEd3vd_RmJCjo5c-0">
          <mxGeometry width="50" height="50" relative="1" as="geometry">
            <mxPoint x="180" y="250" as="sourcePoint" />
            <mxPoint x="230" y="200" as="targetPoint" />
          </mxGeometry>
        </mxCell>
        <mxCell id="ItQXpiEd3vd_RmJCjo5c-12" value="&lt;u&gt;ID&lt;/u&gt;" style="ellipse;whiteSpace=wrap;html=1;" vertex="1" parent="WIyWlLk6GJQsqaUBKTNV-1">
          <mxGeometry x="73" y="270" width="87" height="40" as="geometry" />
        </mxCell>
        <mxCell id="ItQXpiEd3vd_RmJCjo5c-13" value="" style="endArrow=none;html=1;rounded=0;exitX=0.678;exitY=-0.025;exitDx=0;exitDy=0;exitPerimeter=0;entryX=0.164;entryY=1;entryDx=0;entryDy=0;entryPerimeter=0;" edge="1" parent="WIyWlLk6GJQsqaUBKTNV-1" source="ItQXpiEd3vd_RmJCjo5c-12" target="ItQXpiEd3vd_RmJCjo5c-0">
          <mxGeometry width="50" height="50" relative="1" as="geometry">
            <mxPoint x="180" y="250" as="sourcePoint" />
            <mxPoint x="230" y="200" as="targetPoint" />
          </mxGeometry>
        </mxCell>
        <mxCell id="ItQXpiEd3vd_RmJCjo5c-14" value="Endereço" style="ellipse;whiteSpace=wrap;html=1;" vertex="1" parent="WIyWlLk6GJQsqaUBKTNV-1">
          <mxGeometry x="250" y="80" width="90" height="40" as="geometry" />
        </mxCell>
        <mxCell id="ItQXpiEd3vd_RmJCjo5c-15" value="" style="endArrow=none;html=1;rounded=0;entryX=0.333;entryY=1;entryDx=0;entryDy=0;entryPerimeter=0;exitX=0.621;exitY=0;exitDx=0;exitDy=0;exitPerimeter=0;" edge="1" parent="WIyWlLk6GJQsqaUBKTNV-1" source="ItQXpiEd3vd_RmJCjo5c-0" target="ItQXpiEd3vd_RmJCjo5c-14">
          <mxGeometry width="50" height="50" relative="1" as="geometry">
            <mxPoint x="240" y="300" as="sourcePoint" />
            <mxPoint x="290" y="250" as="targetPoint" />
          </mxGeometry>
        </mxCell>
        <mxCell id="ItQXpiEd3vd_RmJCjo5c-16" value="&lt;font style=&quot;font-size: 17px;&quot;&gt;Grupo&lt;/font&gt;" style="rounded=0;whiteSpace=wrap;html=1;" vertex="1" parent="WIyWlLk6GJQsqaUBKTNV-1">
          <mxGeometry x="550" y="200" width="140" height="40" as="geometry" />
        </mxCell>
        <mxCell id="ItQXpiEd3vd_RmJCjo5c-17" value="Nome" style="ellipse;whiteSpace=wrap;html=1;" vertex="1" parent="WIyWlLk6GJQsqaUBKTNV-1">
          <mxGeometry x="500" y="130" width="86" height="30" as="geometry" />
        </mxCell>
        <mxCell id="ItQXpiEd3vd_RmJCjo5c-22" value="" style="endArrow=none;html=1;rounded=0;exitX=0.5;exitY=1;exitDx=0;exitDy=0;entryX=0.107;entryY=0.025;entryDx=0;entryDy=0;entryPerimeter=0;" edge="1" parent="WIyWlLk6GJQsqaUBKTNV-1" source="ItQXpiEd3vd_RmJCjo5c-17" target="ItQXpiEd3vd_RmJCjo5c-16">
          <mxGeometry width="50" height="50" relative="1" as="geometry">
            <mxPoint x="430" y="230" as="sourcePoint" />
            <mxPoint x="480" y="180" as="targetPoint" />
          </mxGeometry>
        </mxCell>
        <mxCell id="ItQXpiEd3vd_RmJCjo5c-23" value="Descrição" style="ellipse;whiteSpace=wrap;html=1;" vertex="1" parent="WIyWlLk6GJQsqaUBKTNV-1">
          <mxGeometry x="560" y="70" width="84" height="40" as="geometry" />
        </mxCell>
        <mxCell id="ItQXpiEd3vd_RmJCjo5c-24" value="" style="endArrow=none;html=1;rounded=0;entryX=0.343;entryY=-0.05;entryDx=0;entryDy=0;exitX=0.679;exitY=1.05;exitDx=0;exitDy=0;exitPerimeter=0;entryPerimeter=0;" edge="1" parent="WIyWlLk6GJQsqaUBKTNV-1" source="ItQXpiEd3vd_RmJCjo5c-23" target="ItQXpiEd3vd_RmJCjo5c-16">
          <mxGeometry width="50" height="50" relative="1" as="geometry">
            <mxPoint x="630" y="140" as="sourcePoint" />
            <mxPoint x="470" y="220" as="targetPoint" />
          </mxGeometry>
        </mxCell>
        <mxCell id="ItQXpiEd3vd_RmJCjo5c-25" value="&lt;u&gt;ID&lt;/u&gt;" style="ellipse;whiteSpace=wrap;html=1;" vertex="1" parent="WIyWlLk6GJQsqaUBKTNV-1">
          <mxGeometry x="680" y="280" width="87" height="40" as="geometry" />
        </mxCell>
        <mxCell id="ItQXpiEd3vd_RmJCjo5c-26" value="" style="endArrow=none;html=1;rounded=0;exitX=0.678;exitY=-0.025;exitDx=0;exitDy=0;exitPerimeter=0;entryX=0.814;entryY=1.05;entryDx=0;entryDy=0;entryPerimeter=0;" edge="1" parent="WIyWlLk6GJQsqaUBKTNV-1" source="ItQXpiEd3vd_RmJCjo5c-25" target="ItQXpiEd3vd_RmJCjo5c-16">
          <mxGeometry width="50" height="50" relative="1" as="geometry">
            <mxPoint x="420" y="270" as="sourcePoint" />
            <mxPoint x="670" y="260" as="targetPoint" />
            <Array as="points" />
          </mxGeometry>
        </mxCell>
        <mxCell id="ItQXpiEd3vd_RmJCjo5c-27" value="Local" style="ellipse;whiteSpace=wrap;html=1;" vertex="1" parent="WIyWlLk6GJQsqaUBKTNV-1">
          <mxGeometry x="640" y="140" width="90" height="40" as="geometry" />
        </mxCell>
        <mxCell id="ItQXpiEd3vd_RmJCjo5c-28" value="" style="endArrow=none;html=1;rounded=0;entryX=0.333;entryY=1;entryDx=0;entryDy=0;entryPerimeter=0;exitX=0.621;exitY=0;exitDx=0;exitDy=0;exitPerimeter=0;" edge="1" parent="WIyWlLk6GJQsqaUBKTNV-1" source="ItQXpiEd3vd_RmJCjo5c-16" target="ItQXpiEd3vd_RmJCjo5c-27">
          <mxGeometry width="50" height="50" relative="1" as="geometry">
            <mxPoint x="480" y="320" as="sourcePoint" />
            <mxPoint x="530" y="270" as="targetPoint" />
          </mxGeometry>
        </mxCell>
        <mxCell id="ItQXpiEd3vd_RmJCjo5c-29" value="Possui" style="rhombus;whiteSpace=wrap;html=1;" vertex="1" parent="WIyWlLk6GJQsqaUBKTNV-1">
          <mxGeometry x="370" y="190" width="80" height="80" as="geometry" />
        </mxCell>
        <mxCell id="ItQXpiEd3vd_RmJCjo5c-30" value="Data" style="ellipse;whiteSpace=wrap;html=1;" vertex="1" parent="WIyWlLk6GJQsqaUBKTNV-1">
          <mxGeometry x="717" y="210" width="90" height="40" as="geometry" />
        </mxCell>
        <mxCell id="ItQXpiEd3vd_RmJCjo5c-31" value="" style="endArrow=none;html=1;rounded=0;exitX=0;exitY=0.5;exitDx=0;exitDy=0;entryX=1;entryY=0.5;entryDx=0;entryDy=0;" edge="1" parent="WIyWlLk6GJQsqaUBKTNV-1" source="ItQXpiEd3vd_RmJCjo5c-30" target="ItQXpiEd3vd_RmJCjo5c-16">
          <mxGeometry width="50" height="50" relative="1" as="geometry">
            <mxPoint x="699" y="289" as="sourcePoint" />
            <mxPoint x="674" y="252" as="targetPoint" />
            <Array as="points" />
          </mxGeometry>
        </mxCell>
        <mxCell id="ItQXpiEd3vd_RmJCjo5c-32" value="Horario" style="ellipse;whiteSpace=wrap;html=1;" vertex="1" parent="WIyWlLk6GJQsqaUBKTNV-1">
          <mxGeometry x="575" y="280" width="90" height="40" as="geometry" />
        </mxCell>
        <mxCell id="ItQXpiEd3vd_RmJCjo5c-33" value="" style="endArrow=none;html=1;rounded=0;entryX=0.678;entryY=0;entryDx=0;entryDy=0;entryPerimeter=0;exitX=0.364;exitY=0.975;exitDx=0;exitDy=0;exitPerimeter=0;" edge="1" parent="WIyWlLk6GJQsqaUBKTNV-1" source="ItQXpiEd3vd_RmJCjo5c-16" target="ItQXpiEd3vd_RmJCjo5c-32">
          <mxGeometry width="50" height="50" relative="1" as="geometry">
            <mxPoint x="340" y="260" as="sourcePoint" />
            <mxPoint x="390" y="210" as="targetPoint" />
          </mxGeometry>
        </mxCell>
        <mxCell id="ItQXpiEd3vd_RmJCjo5c-34" value="" style="endArrow=none;html=1;rounded=0;exitX=1;exitY=0.5;exitDx=0;exitDy=0;entryX=0;entryY=0.5;entryDx=0;entryDy=0;" edge="1" parent="WIyWlLk6GJQsqaUBKTNV-1" source="ItQXpiEd3vd_RmJCjo5c-40" target="ItQXpiEd3vd_RmJCjo5c-16">
          <mxGeometry width="50" height="50" relative="1" as="geometry">
            <mxPoint x="510" y="340" as="sourcePoint" />
            <mxPoint x="560" y="290" as="targetPoint" />
          </mxGeometry>
        </mxCell>
        <mxCell id="ItQXpiEd3vd_RmJCjo5c-36" value="" style="endArrow=none;html=1;rounded=0;exitX=1;exitY=0.5;exitDx=0;exitDy=0;" edge="1" parent="WIyWlLk6GJQsqaUBKTNV-1" source="ItQXpiEd3vd_RmJCjo5c-43" target="ItQXpiEd3vd_RmJCjo5c-29">
          <mxGeometry width="50" height="50" relative="1" as="geometry">
            <mxPoint x="510" y="340" as="sourcePoint" />
            <mxPoint x="380" y="230" as="targetPoint" />
          </mxGeometry>
        </mxCell>
        <mxCell id="ItQXpiEd3vd_RmJCjo5c-44" value="" style="endArrow=none;html=1;rounded=0;exitX=1;exitY=0.5;exitDx=0;exitDy=0;" edge="1" parent="WIyWlLk6GJQsqaUBKTNV-1" source="ItQXpiEd3vd_RmJCjo5c-0" target="ItQXpiEd3vd_RmJCjo5c-43">
          <mxGeometry width="50" height="50" relative="1" as="geometry">
            <mxPoint x="290" y="200" as="sourcePoint" />
            <mxPoint x="378" y="222" as="targetPoint" />
          </mxGeometry>
        </mxCell>
        <mxCell id="ItQXpiEd3vd_RmJCjo5c-43" value="&lt;h1&gt;N&lt;/h1&gt;" style="text;html=1;align=center;verticalAlign=middle;resizable=0;points=[];autosize=1;strokeColor=none;fillColor=none;" vertex="1" parent="WIyWlLk6GJQsqaUBKTNV-1">
          <mxGeometry x="320" y="180" width="40" height="70" as="geometry" />
        </mxCell>
        <mxCell id="ItQXpiEd3vd_RmJCjo5c-45" value="" style="endArrow=none;html=1;rounded=0;exitX=1;exitY=0.5;exitDx=0;exitDy=0;entryX=0;entryY=0.5;entryDx=0;entryDy=0;" edge="1" parent="WIyWlLk6GJQsqaUBKTNV-1" source="ItQXpiEd3vd_RmJCjo5c-29" target="ItQXpiEd3vd_RmJCjo5c-40">
          <mxGeometry width="50" height="50" relative="1" as="geometry">
            <mxPoint x="450" y="230" as="sourcePoint" />
            <mxPoint x="550" y="220" as="targetPoint" />
          </mxGeometry>
        </mxCell>
        <mxCell id="ItQXpiEd3vd_RmJCjo5c-40" value="&lt;h1&gt;N&lt;/h1&gt;" style="text;html=1;align=center;verticalAlign=middle;resizable=0;points=[];autosize=1;strokeColor=none;fillColor=none;" vertex="1" parent="WIyWlLk6GJQsqaUBKTNV-1">
          <mxGeometry x="480" y="190" width="40" height="70" as="geometry" />
        </mxCell>
        <mxCell id="ItQXpiEd3vd_RmJCjo5c-46" value="Tem" style="rhombus;whiteSpace=wrap;html=1;" vertex="1" parent="WIyWlLk6GJQsqaUBKTNV-1">
          <mxGeometry x="414" y="330" width="80" height="80" as="geometry" />
        </mxCell>
        <mxCell id="ItQXpiEd3vd_RmJCjo5c-47" value="" style="endArrow=none;html=1;rounded=0;entryX=0.193;entryY=1.025;entryDx=0;entryDy=0;entryPerimeter=0;exitX=0.975;exitY=0.329;exitDx=0;exitDy=0;exitPerimeter=0;" edge="1" parent="WIyWlLk6GJQsqaUBKTNV-1" source="ItQXpiEd3vd_RmJCjo5c-54" target="ItQXpiEd3vd_RmJCjo5c-16">
          <mxGeometry width="50" height="50" relative="1" as="geometry">
            <mxPoint x="470" y="340" as="sourcePoint" />
            <mxPoint x="520" y="290" as="targetPoint" />
          </mxGeometry>
        </mxCell>
        <mxCell id="ItQXpiEd3vd_RmJCjo5c-48" value="Esporte" style="rounded=0;whiteSpace=wrap;html=1;" vertex="1" parent="WIyWlLk6GJQsqaUBKTNV-1">
          <mxGeometry x="230" y="450.09" width="100" height="40" as="geometry" />
        </mxCell>
        <mxCell id="ItQXpiEd3vd_RmJCjo5c-50" value="Nome" style="ellipse;whiteSpace=wrap;html=1;" vertex="1" parent="WIyWlLk6GJQsqaUBKTNV-1">
          <mxGeometry x="220" y="520" width="80" height="40" as="geometry" />
        </mxCell>
        <mxCell id="ItQXpiEd3vd_RmJCjo5c-51" value="" style="endArrow=none;html=1;rounded=0;exitX=0;exitY=0.5;exitDx=0;exitDy=0;entryX=1;entryY=0.5;entryDx=0;entryDy=0;" edge="1" parent="WIyWlLk6GJQsqaUBKTNV-1" source="ItQXpiEd3vd_RmJCjo5c-48" target="ItQXpiEd3vd_RmJCjo5c-58">
          <mxGeometry width="50" height="50" relative="1" as="geometry">
            <mxPoint x="391.03999999999996" y="490.0899999999999" as="sourcePoint" />
            <mxPoint x="320" y="350.09" as="targetPoint" />
          </mxGeometry>
        </mxCell>
        <mxCell id="ItQXpiEd3vd_RmJCjo5c-52" value="" style="endArrow=none;html=1;rounded=0;exitX=0.5;exitY=0;exitDx=0;exitDy=0;entryX=0.61;entryY=1.05;entryDx=0;entryDy=0;entryPerimeter=0;" edge="1" parent="WIyWlLk6GJQsqaUBKTNV-1" source="ItQXpiEd3vd_RmJCjo5c-50" target="ItQXpiEd3vd_RmJCjo5c-48">
          <mxGeometry width="50" height="50" relative="1" as="geometry">
            <mxPoint x="270" y="400.09" as="sourcePoint" />
            <mxPoint x="320" y="350.09" as="targetPoint" />
          </mxGeometry>
        </mxCell>
        <mxCell id="ItQXpiEd3vd_RmJCjo5c-53" value="" style="endArrow=none;html=1;rounded=0;entryX=0.163;entryY=0.713;entryDx=0;entryDy=0;entryPerimeter=0;" edge="1" parent="WIyWlLk6GJQsqaUBKTNV-1" source="ItQXpiEd3vd_RmJCjo5c-55" target="ItQXpiEd3vd_RmJCjo5c-46">
          <mxGeometry width="50" height="50" relative="1" as="geometry">
            <mxPoint x="360" y="450" as="sourcePoint" />
            <mxPoint x="410" y="400" as="targetPoint" />
          </mxGeometry>
        </mxCell>
        <mxCell id="ItQXpiEd3vd_RmJCjo5c-56" value="" style="endArrow=none;html=1;rounded=0;exitX=1;exitY=0;exitDx=0;exitDy=0;" edge="1" parent="WIyWlLk6GJQsqaUBKTNV-1" source="ItQXpiEd3vd_RmJCjo5c-46" target="ItQXpiEd3vd_RmJCjo5c-54">
          <mxGeometry width="50" height="50" relative="1" as="geometry">
            <mxPoint x="474" y="350" as="sourcePoint" />
            <mxPoint x="577" y="241" as="targetPoint" />
          </mxGeometry>
        </mxCell>
        <mxCell id="ItQXpiEd3vd_RmJCjo5c-54" value="&lt;h1&gt;N&lt;/h1&gt;" style="text;html=1;align=center;verticalAlign=middle;resizable=0;points=[];autosize=1;strokeColor=none;fillColor=none;" vertex="1" parent="WIyWlLk6GJQsqaUBKTNV-1">
          <mxGeometry x="500" y="270" width="40" height="70" as="geometry" />
        </mxCell>
        <mxCell id="ItQXpiEd3vd_RmJCjo5c-57" value="" style="endArrow=none;html=1;rounded=0;exitX=1;exitY=0;exitDx=0;exitDy=0;" edge="1" parent="WIyWlLk6GJQsqaUBKTNV-1" source="ItQXpiEd3vd_RmJCjo5c-48" target="ItQXpiEd3vd_RmJCjo5c-55">
          <mxGeometry width="50" height="50" relative="1" as="geometry">
            <mxPoint x="340" y="450.09" as="sourcePoint" />
            <mxPoint x="356.52" y="449.99999999999994" as="targetPoint" />
          </mxGeometry>
        </mxCell>
        <mxCell id="ItQXpiEd3vd_RmJCjo5c-55" value="&lt;h1&gt;1&lt;/h1&gt;" style="text;html=1;align=center;verticalAlign=middle;resizable=0;points=[];autosize=1;strokeColor=none;fillColor=none;" vertex="1" parent="WIyWlLk6GJQsqaUBKTNV-1">
          <mxGeometry x="370" y="380.09" width="40" height="70" as="geometry" />
        </mxCell>
        <mxCell id="ItQXpiEd3vd_RmJCjo5c-58" value="&lt;u&gt;ID&lt;/u&gt;" style="ellipse;whiteSpace=wrap;html=1;" vertex="1" parent="WIyWlLk6GJQsqaUBKTNV-1">
          <mxGeometry x="120" y="435.09" width="80" height="50" as="geometry" />
        </mxCell>
      </root>
    </mxGraphModel>
  </diagram>
</mxfile>
